# xmcd
#
# Track frame offsets:
#	182
#	10880
#	25910
#	35780
#	47812
#	59302
#	69042
#	83535
#	94272
#	108147
#	120705
#	130310
#	140557
#	160875
#	174682
#	186547
#	199785
#	210020
#	223595
#
# Disc length: 3115
#
# Revision: 6
# Processed by: cddbd v1.5.1PL0 Copyright (c) Steve Scherf et al.
# Submitted via: CDex 1.51
# Normalized: r4:TSWAP
#
DISCID=0a0c2913
DTITLE=Various Artist - Country and Western Favourites - Volume 2
DYEAR=1992
DGENRE=Country
TTITLE0=Johnny Cash - You Win Again
TTITLE1=Frankie Laine - Sixteen Tons
TTITLE2=Eddie Jones - Deep In The Heart Of Texas
TTITLE3=Kenny Rogers and The First Edition - Rubie, Don't Take Your Love To Town
TTITLE4=George Jones - I Can't Change Overnight
TTITLE5=Jerry Lee Lewis - Walk Right In
TTITLE6=Billy Joe Spears - I'll Never Be Free
TTITLE7=Don Gibson - Oh Lonesome Me
TTITLE8=Willie Nelson - Home Is Where You're happy
TTITLE9=Oak Ridge Boys - You'll Never Walk Alone
TTITLE10=Donna Fargo - Stick and Stones
TTITLE11=Carl Perkins - Daddy Sang Bass
TTITLE12=Gram Parsons and Emmylou Harris - Love Hurts
TTITLE13=Freddie Fender - Baby I Want To Love You
TTITLE14=Don David Jnr - Country kings
TTITLE15=Stu Stevens - Love Me Tender
TTITLE16=Buddy Knox - Devil Woman
TTITLE17=George Jones - Cold, Cold Heart
TTITLE18=Waylon Jennings - White Lightning
EXTD=YEAR: 1992
EXTT0=
EXTT1=
EXTT2=
EXTT3=
EXTT4=
EXTT5=
EXTT6=
EXTT7=
EXTT8=
EXTT9=
EXTT10=
EXTT11=
EXTT12=
EXTT13=
EXTT14=
EXTT15=
EXTT16=
EXTT17=
EXTT18=
PLAYORDER=
